<?xml version="1.0" encoding="utf-8"?>
<!-- Generator: Adobe Illustrator 16.0.0, SVG Export Plug-In . SVG Version: 6.00 Build 0)  -->
<!DOCTYPE svg PUBLIC "-//W3C//DTD SVG 1.1//EN" "http://www.w3.org/Graphics/SVG/1.1/DTD/svg11.dtd">
<svg version="1.1" id="Capa_1" xmlns="http://www.w3.org/2000/svg" xmlns:xlink="http://www.w3.org/1999/xlink" x="0px" y="0px"
	 width="250px" height="82px" viewBox="0 0 250 82" enable-background="new 0 0 250 82" xml:space="preserve">
<g>
	<g>
		<path fill="#1A141E" d="M99.025,51.612l7.985-11.492v-0.099h-7.263v-3.135h12.164v2.189l-7.811,11.343v0.1h7.935v3.133H99.025
			V51.612z"/>
		<path fill="#1A141E" d="M116.463,48.776c0.1,1.567,1.667,2.313,3.433,2.313c1.293,0,2.338-0.174,3.358-0.522l0.498,2.563
			c-1.244,0.521-2.761,0.771-4.403,0.771c-4.129,0-6.493-2.388-6.493-6.194c0-3.084,1.916-6.492,6.144-6.492
			c3.931,0,5.423,3.06,5.423,6.069c0,0.647-0.075,1.219-0.125,1.492H116.463z M120.916,46.189c0-0.92-0.398-2.461-2.139-2.461
			c-1.592,0-2.238,1.468-2.338,2.461H120.916z"/>
		<path fill="#1A141E" d="M136.513,49.747c0,1.592,0.05,2.885,0.099,3.904h-3.282l-0.174-1.716h-0.075
			c-0.472,0.747-1.617,1.99-3.807,1.99c-2.486,0-4.278-1.543-4.278-5.298v-7.139h3.78v6.542c0,1.767,0.574,2.836,1.916,2.836
			c1.045,0,1.668-0.721,1.891-1.318c0.1-0.225,0.15-0.498,0.15-0.82v-7.239h3.78V49.747z"/>
		<path fill="#1A141E" d="M138.129,50.368c0.697,0.424,2.141,0.896,3.259,0.896c1.146,0,1.618-0.372,1.618-0.995
			c0-0.646-0.374-0.946-1.766-1.418c-2.538-0.846-3.508-2.213-3.483-3.655c0-2.29,1.94-4.006,4.95-4.006
			c1.418,0,2.661,0.348,3.408,0.721l-0.647,2.612c-0.548-0.298-1.616-0.697-2.637-0.697c-0.919,0-1.443,0.373-1.443,0.971
			c0,0.597,0.473,0.896,1.966,1.418c2.314,0.796,3.259,1.99,3.283,3.757c0,2.287-1.766,3.954-5.249,3.954
			c-1.591,0-3.01-0.373-3.929-0.87L138.129,50.368z"/>
		<path fill="#1A141E" d="M150.965,36.887v16.765h-2.188V36.887H150.965z"/>
		<path fill="#1A141E" d="M153.728,44.871c0-1.269-0.025-2.264-0.1-3.259h1.938l0.126,1.99h0.049c0.597-1.118,1.99-2.239,3.98-2.239
			c1.667,0,4.253,0.996,4.253,5.125v7.163h-2.189v-6.939c0-1.939-0.721-3.557-2.785-3.557c-1.417,0-2.537,1.021-2.935,2.238
			c-0.1,0.274-0.149,0.647-0.149,1.021v7.237h-2.188V44.871z"/>
		<path fill="#1A141E" d="M168.877,38.728v2.885h3.133v1.667h-3.133v6.492c0,1.493,0.422,2.338,1.641,2.338
			c0.598,0,0.944-0.049,1.269-0.148l0.1,1.667c-0.424,0.149-1.095,0.298-1.94,0.298c-1.021,0-1.841-0.348-2.362-0.92
			c-0.597-0.671-0.847-1.741-0.847-3.159v-6.567h-1.865v-1.667h1.865v-2.238L168.877,38.728z"/>
		<path fill="#1A141E" d="M173.279,45.369c0-1.418-0.026-2.637-0.101-3.757h1.917l0.099,2.39h0.075
			c0.547-1.619,1.89-2.638,3.358-2.638c0.223,0,0.396,0.025,0.596,0.051v2.064c-0.223-0.049-0.448-0.049-0.746-0.049
			c-1.542,0-2.636,1.144-2.935,2.785c-0.05,0.298-0.074,0.672-0.074,1.02v6.417h-2.189V45.369z"/>
		<path fill="#1A141E" d="M188.553,50.767c0,1.045,0.05,2.063,0.175,2.885h-1.966l-0.175-1.517h-0.074
			c-0.671,0.944-1.966,1.791-3.682,1.791c-2.437,0-3.682-1.717-3.682-3.457c0-2.909,2.588-4.502,7.239-4.479v-0.248
			c0-0.97-0.273-2.785-2.736-2.761c-1.145,0-2.313,0.323-3.159,0.895l-0.497-1.467c0.995-0.622,2.463-1.045,3.979-1.045
			c3.683,0,4.577,2.512,4.577,4.901V50.767z M186.438,47.508c-2.387-0.05-5.099,0.374-5.099,2.712c0,1.441,0.945,2.089,2.039,2.089
			c1.593,0,2.612-0.995,2.96-2.015c0.075-0.249,0.1-0.497,0.1-0.696V47.508z"/>
		<path fill="#1A141E" d="M190.892,44.871c0-1.269-0.025-2.264-0.1-3.259h1.94l0.123,1.99h0.051c0.597-1.118,1.99-2.239,3.979-2.239
			c1.667,0,4.253,0.996,4.253,5.125v7.163h-2.188v-6.939c0-1.939-0.721-3.557-2.785-3.557c-1.419,0-2.538,1.021-2.936,2.238
			c-0.101,0.274-0.148,0.647-0.148,1.021v7.237h-2.189V44.871z"/>
		<path fill="#1A141E" d="M204.723,48.03c0.049,2.961,1.914,4.179,4.128,4.179c1.567,0,2.538-0.273,3.333-0.621l0.399,1.566
			c-0.771,0.349-2.115,0.771-4.03,0.771c-3.707,0-5.92-2.462-5.92-6.094c0-3.633,2.139-6.468,5.646-6.468
			c3.955,0,4.976,3.433,4.976,5.647c0,0.447-0.025,0.771-0.075,1.02H204.723z M211.14,46.464c0.024-1.368-0.572-3.532-3.035-3.532
			c-2.239,0-3.184,2.015-3.357,3.532H211.14z"/>
		<path fill="#1A141E" d="M217.408,38.728v2.885h3.135v1.667h-3.135v6.492c0,1.493,0.424,2.338,1.642,2.338
			c0.597,0,0.945-0.049,1.269-0.148l0.1,1.667c-0.423,0.149-1.095,0.298-1.94,0.298c-1.019,0-1.84-0.348-2.362-0.92
			c-0.598-0.671-0.846-1.741-0.846-3.159v-6.567h-1.865v-1.667h1.865v-2.238L217.408,38.728z"/>
	</g>
	<g>
		<path fill="none" d="M85.417,45.468c0,0-0.007,0.011-0.019,0.026l0.43,5.542L85.417,45.468z"/>
		<path fill="none" d="M44.788,69.712c0,0,0.005-0.002,0.016-0.007C44.798,69.707,44.792,69.71,44.788,69.712z"/>
		<path fill="#1A141E" d="M86.681,62.01l-0.036-0.473v0.493C86.666,62.02,86.681,62.01,86.681,62.01z"/>
		<path fill="#1A141E" d="M85.398,45.494c-0.46,0.649-10.319,14.156-40.595,24.211c-0.01,0.005-0.016,0.007-0.016,0.007
			L88.41,24.379l1.015-0.951c-0.305-0.054-0.614-0.106-0.924-0.159c-0.036-0.006-0.071-0.011-0.106-0.017l0.015-0.007
			c-4.627-0.819-8.187-1.152-12.473-1.405c-0.374-0.024-0.743-0.045-1.103-0.063c-15.787-0.786-28.746,1.705-35.847,3.531
			c-0.761,0.195-1.457,0.384-2.078,0.559c-2.471,0.697-3.825,1.198-3.825,1.198L31.46,42.357c4.868-2.961,9.474-5.284,13.708-7.108
			c15.489-6.675,22.719-5.438,22.719-5.438l2.272,0.191h0c-9.192,9.425-42.672,47.693-42.672,47.693
			c31.182-0.134,58.05-15.043,59.154-15.663l-0.813-10.997L85.398,45.494z"/>
		<g>
			<path fill="#DBE180" d="M87.354,29.784l1.341,5.423c0,0,9.457-4.564,8.883-32.514c-0.026-0.155-0.044-0.303-0.07-0.46
				c-0.594,26.832-8.813,30.955-8.813,30.955l-1.341-5.423c-0.157,0.256-0.399,0.648-0.71,1.141
				c-3.093,4.888-13.855,20.794-33.919,35.416c-2.503,1.825-5.144,3.629-7.938,5.391C72.252,52.42,85.441,32.895,87.354,29.784z"/>
		</g>
		<g>
			<path fill="#DEDC00" d="M86.645,41.539v9.273v2.019c0,0,17.322-12.191,10.934-50.18c0,0.014,0,0.028,0.001,0.042
				c0.573,27.949-8.883,32.514-8.883,32.514l-1.341-5.423c-1.913,3.111-15.103,22.636-42.567,39.928
				C73.302,58.737,86.645,41.539,86.645,41.539z"/>
		</g>
	</g>
</g>
</svg>
